<mxfile host="app.diagrams.net" modified="2022-07-24T07:20:54.577Z" agent="5.0 (Macintosh; Intel Mac OS X 10_15_7) AppleWebKit/537.36 (KHTML, like Gecko) Chrome/103.0.0.0 Safari/537.36" etag="lT454C_mTMemI1BEamER" version="20.2.0" type="github">
  <diagram id="KL3Q8OLUS_fq7bR6wZJg" name="Page-1">
    <mxGraphModel dx="946" dy="646" grid="1" gridSize="10" guides="1" tooltips="1" connect="1" arrows="1" fold="1" page="1" pageScale="1" pageWidth="827" pageHeight="1169" math="0" shadow="0">
      <root>
        <mxCell id="0" />
        <mxCell id="1" parent="0" />
        <mxCell id="c2LJYgky-UHLJf6tqLSh-1" value="" style="shape=image;html=1;verticalAlign=top;verticalLabelPosition=bottom;labelBackgroundColor=#ffffff;imageAspect=0;aspect=fixed;image=https://cdn4.iconfinder.com/data/icons/socialcones/508/Gitlab-128.png" vertex="1" parent="1">
          <mxGeometry x="210" y="170.5" width="39.5" height="39.5" as="geometry" />
        </mxCell>
        <mxCell id="c2LJYgky-UHLJf6tqLSh-3" value="" style="verticalLabelPosition=bottom;sketch=0;html=1;fillColor=#282828;strokeColor=none;verticalAlign=top;pointerEvents=1;align=center;shape=mxgraph.cisco_safe.people_places_things_icons.icon2;" vertex="1" parent="1">
          <mxGeometry x="130" y="180.25" width="20" height="20" as="geometry" />
        </mxCell>
        <mxCell id="c2LJYgky-UHLJf6tqLSh-4" value="" style="shape=image;verticalLabelPosition=bottom;labelBackgroundColor=default;verticalAlign=top;aspect=fixed;imageAspect=0;image=data:image/png,iVBORw0KGgoAAAANSUhEUgAAAMgAAADICAMAAACahl6sAAAAdVBMVEX/////agD/tH//rnT/qWz/j0D/yaL/kkX/gSj/59X/5NH/bwj/xp7/gyv/07P/zKj/wpf/oF3/m1P/3sf/eRr/7N//6tv/cQz/v5L/2b//1LX/uon/nVf/o2L/sXn/fSD/ijf/+PP/8+v/l0z/vI3/jDv/qm4+YXxNAAAF6ElEQVR4nO2d6XqyMBCFG6TuCyiIS63idv+X+NnaxzaIMMmcJN+PeS8APCWTTM5M0rc3QRAEQRAEQRAEQRAEQRAEQRAEQaBwXHSjTpzOe72POFrNNoMy9C8yZ5ikk0I9UUxO8WoZ+sdRGZ7n2bOGP/Q702PoH9lGOb1OGkX8MDoleejf2sA6bv4Uupb5+P/8Lsfkna7iTrFbhP7VT5Rbg4/xh3Qd+pfrnPtWMr6Yb0L/+F/GpAB/yccwtIA7izlLxo1iG1rDjTIacXXceA8+vjYHgIwvOmF1RCAZN3oBI2XRw+lQKuuG0jGrSQtZBBpeY7CMG6cQif4Wr0Opif9Ukr141FMMPOswThDJ+M0j3elQyuc07FKHUv7ixK0OlfnacKVuddwWeT+zMDAtecXch46pex1e1vh870OIcp93fXjRoTLXk/DKj45bwLvVsUAnvK9xGybQDUgLLne/Z4861Ls7HbmdCWeLO2/l6lWHKlzNXGu/OpT6cCTk5FuIo3jfeNfhKOfytKZruPDqFwF0qNSBkF0IIQ528IMgOtQOLsTDdqqOAr6B59Vy7FmBdcwC6YCn846MRQLYcM+D6VCfUCEOnHcqfagQ51ZWA8ixVfqxTupBbksC5Iu/nBAKynwxTaIo0Gp4J2NqGGzf+/48kyY4G8VpbN9cAudsq2KT+jUZ2rBMHIchp9paLjYy8g6itQSbYVpEe3lGDKrr4G0JNSqMK1gLSIdM9P1lkWFmurZjUvWfvDuBPOzO2EwHppWh+HnaEfhJIiMdoFH9GM8x5nlfmFQYlqB3Th9PBBqssX8df3dBuFqKwYoISqq0kgYu3Olm9gXzQn3lwoU7OZFHxWVl4eqAHkt2UlBjYFZ5LswtJgpBVWqfJ0lUnkIcWqDZpebPhvJeaMHexbxsX/NolGdBmn5LUCt1rdkMCnfSgggqnVcD/c4Q83BKigJKt1+9ChPulKQR8/FfTiuYAKz/3BpDxMZWTV6/AGLGEPwgyB6kaDgi+Yl4AaHFEbKGNG3gEOFOMB8gZY/mUARUiAgZCiIWW0rhACOAsIwAvLhD2zv44U7wHvjpYnsTJd/Jbz9uDdhWt0/x7E6DuiyuAn9upFSTuM04hH4Udr8PKS3lhnvS/gruVp3YPsm0tAnrOjNh3BOPEfHSB0pRgafjjxnXzJKV0BHqVUxXjt7uwlmuRoT2IN7sa9BvyDmpQdmv87wBk6IFYztN2Isw11wDHYxw31NOKfGOUJicfMytw51UGuHlvhOTsWWbzNM6AbmnpQ7bZLZeLCmlSttRTCvxoLzZUda/nNK4aRRYTpAj2vg9goT80JR4Wfr91FIVxEJ5oCV3Q5Ud5tfteDPMS/s0m9pOg22c0d4KKXWT2xmxraPaoxE20IR80hXacqm7dAivlLKo34H2u+sbOYClbHJSAdnFoyXDAF/O6NIEWLlSVQokgEFL2OH+Ajzcohvy/DqxQbfDF7i2Kt1FY5fBLoZn82HzVqFlXGzDrDBt0SpRa6K+kWPHnlGAfINqTdYP0nP/PBYnFHgOxwPd4eJ2oFudAMecv9WdIeacZXeM8ogo6usRUvKWdYJpXQuipUafY3iZ78hSByIHroxpVmHS9nvcyLlzTF93CFhrE+taAe4ko58MLjmZKPNsLs8ur9zFwlmZ2CfcOPNlxTwZ2NclEdcC2sfnofIk+0PWmIsabZVUJ0v7eENd6GKX51VPO1q3sfVxtx7ZBOlTc4XtwLoiLzk7G4fptfoIy+kPfbes4dWk+ye7xs4Vz6xPtb3G5O7e3ZPjb1WT3G+dXJ1Hvk35UOOeWaQ6k7Oze/PGlHkni2rev45Ng6xnvqM1IWmTkkWvRsMspY/Ny9b9taXdtOFve1o1Dep8daJ8l17k6crSY3dXt3Ms5oT/VVFO48YEOItnfv8XwfAc9/qPobJ/3xn8FfPZNj08fZrRZP7ZDXX1dZkP199VJwuO682sm6y20TkZz6br//n/WwiCIAiCIAiCIAiCIAiCIAiCIAiCIATnH0EpaAaMRrdFAAAAAElFTkSuQmCC;" vertex="1" parent="1">
          <mxGeometry x="300" y="175.25" width="30" height="30" as="geometry" />
        </mxCell>
      </root>
    </mxGraphModel>
  </diagram>
</mxfile>
